<svg xmlns="http://www.w3.org/2000/svg" width="104.314" height="19.472" viewBox="0 0 104.314 19.472">
  <path id="Trazado_7" data-name="Trazado 7" d="M18.655-2.307,18.048-.962A12.7,12.7,0,0,1,11.826.567Q4.944.567,2.413-4.39A10.756,10.756,0,0,1,1.239-9.36a8.792,8.792,0,0,1,2.874-6.9,11.55,11.55,0,0,1,8.029-2.65,17.627,17.627,0,0,1,6.315,1.173l.171.2a21.918,21.918,0,0,0-.554,4.258l-.119.132h-.778l-.132-.145A18.13,18.13,0,0,0,16.9-15.5a6.025,6.025,0,0,0-4.759-1.859,6.4,6.4,0,0,0-5.023,2.03A7.954,7.954,0,0,0,5.3-9.822,8.6,8.6,0,0,0,8.543-2.6,7.334,7.334,0,0,0,13.17-1.252,10.74,10.74,0,0,0,18.325-2.61ZM32.092-5.773a6.032,6.032,0,0,1-1.68,4.523A6.113,6.113,0,0,1,25.952.344a5.712,5.712,0,0,1-4.2-1.5,5.613,5.613,0,0,1-1.523-4.184q0-3.758,2.867-5.2a7.1,7.1,0,0,1,3.211-.656,5.939,5.939,0,0,1,4.242,1.43A5.236,5.236,0,0,1,32.092-5.773Zm-2.406.406a6.285,6.285,0,0,0-.91-3.6A3.026,3.026,0,0,0,26.108-10.3,2.98,2.98,0,0,0,23.03-8.211a6.958,6.958,0,0,0-.391,2.4A7.048,7.048,0,0,0,23.53-2,3.056,3.056,0,0,0,26.288-.555a2.943,2.943,0,0,0,2.992-2.2A7.91,7.91,0,0,0,29.686-5.367Zm15.172-5.055-.078.078q-.922,0-1.039.492a8.089,8.089,0,0,0-.094,1.188q-.023.68-.023,1.961V-4.3a4.835,4.835,0,0,1-.914,3.313A4.464,4.464,0,0,1,39.256.328a6.294,6.294,0,0,1-3.2-.68A2.7,2.7,0,0,1,34.8-1.992a18.93,18.93,0,0,1-.187-3.547V-7.555a17.54,17.54,0,0,0-.1-2.422.34.34,0,0,0-.266-.289,8.592,8.592,0,0,0-.914-.078l-.078-.078v-.523l.078-.078q.75.047,2.406.047,1.688,0,2.4-.047l.078.078v.523l-.078.078a8.592,8.592,0,0,0-.914.078.34.34,0,0,0-.266.289,17.54,17.54,0,0,0-.1,2.422v1.609a13.791,13.791,0,0,0,.266,3.617q.531,1.313,2.617,1.313a3.126,3.126,0,0,0,2.133-.672,1.894,1.894,0,0,0,.5-.648,3.859,3.859,0,0,0,.219-1.016,11.878,11.878,0,0,0,.07-1.3V-6.273q0-2.047-.016-2.8a3.513,3.513,0,0,0-.094-.914.457.457,0,0,0-.273-.242,4.432,4.432,0,0,0-.961-.117l-.078-.078v-.523l.078-.078q.68.047,1.4.047.539,0,2.07-.047l.078.078Zm13.227,0L58-10.344a8.592,8.592,0,0,0-.914.078.34.34,0,0,0-.266.289,17.54,17.54,0,0,0-.1,2.422v3.172q0,3.508.1,4.57l-.1.07Q55.834.109,55.381.047,53.288-2.3,48.233-8.531v5.109A17.54,17.54,0,0,0,48.334-1a.34.34,0,0,0,.266.289,8.592,8.592,0,0,0,.914.078l.078.078v.531l-.078.07Q48.616,0,47.842,0q-.9,0-1.8.047l-.078-.07V-.555l.078-.078a8.592,8.592,0,0,0,.914-.078A.34.34,0,0,0,47.217-1a17.54,17.54,0,0,0,.1-2.422V-7.555a17.54,17.54,0,0,0-.1-2.422.34.34,0,0,0-.266-.289,8.592,8.592,0,0,0-.914-.078l-.078-.078v-.531l.078-.07q.742.047,1.414.047,1.055,0,1.75-.047,2.813,3.75,6.609,8.039v-4.57a17.54,17.54,0,0,0-.1-2.422.34.34,0,0,0-.266-.289,8.592,8.592,0,0,0-.914-.078l-.078-.078v-.531l.078-.07q.875.047,1.664.047,1.008,0,1.813-.047l.078.07Zm10.867-.555a8.1,8.1,0,0,0-.1,1.2l-.016,1.3-.078.078h-.492l-.086-.07a8.864,8.864,0,0,0-.086-1.172.536.536,0,0,0-.5-.367q-.156-.023-1.469-.023H65.077q-.016.273-.016,2.172v4.438A17.539,17.539,0,0,0,65.163-1a.34.34,0,0,0,.266.289,8.592,8.592,0,0,0,.914.078l.078.078v.523l-.078.078Q65.569,0,63.936,0,62.264,0,61.53.047l-.07-.07V-.555l.078-.078a8.592,8.592,0,0,0,.914-.078A.34.34,0,0,0,62.717-1a17.54,17.54,0,0,0,.1-2.422V-7.859q0-1.93-.023-2.172H61.678a7.977,7.977,0,0,0-1.633.086.344.344,0,0,0-.172.117,1.574,1.574,0,0,0-.117.5q-.055.414-.07.852l-.078.078h-.492l-.086-.078-.016-1.336a9.13,9.13,0,0,0-.094-1.164l.07-.078q.461.078,3.359.078h3.164q2.672,0,3.359-.078ZM80.467-.031l-.078.078-.3-.008Q79.022,0,78.756,0q-.4,0-1.266.047a2.179,2.179,0,0,0-.3-.625L75.256-3.812l-.867-1.32a2.182,2.182,0,0,0-.461-.477l.086-.266q.18.008.266.008a2.5,2.5,0,0,0,1.2-.242,2.084,2.084,0,0,0,.734-.766,2.444,2.444,0,0,0,.336-1.3,1.775,1.775,0,0,0-.984-1.781A3.346,3.346,0,0,0,74.2-10.18a4.372,4.372,0,0,0-.75.063q-.078.766-.078,2.609v4.086A17.539,17.539,0,0,0,73.475-1a.34.34,0,0,0,.266.289,8.592,8.592,0,0,0,.914.078l.078.078v.523l-.07.078Q73.881,0,72.256,0q-1.68,0-2.406.047l-.078-.07V-.555l.078-.078a8.592,8.592,0,0,0,.914-.078A.34.34,0,0,0,71.03-1a17.539,17.539,0,0,0,.1-2.422V-7.555a17.539,17.539,0,0,0-.1-2.422.34.34,0,0,0-.266-.289,8.592,8.592,0,0,0-.914-.078l-.078-.078v-.531l.078-.07q.766.047,2.406.047.953,0,1.547-.023,1.18-.047,1.766-.047a5.967,5.967,0,0,1,1.984.242A1.854,1.854,0,0,1,78.694-9.7a2.629,2.629,0,0,1,.141.906,3.125,3.125,0,0,1-2.391,3.016q.391.656.828,1.328l1.2,1.852A8.548,8.548,0,0,0,79.889-.727a.91.91,0,0,0,.5.117l.078.078Zm5.82,0-.07.078Q85.436,0,83.8,0T81.4.047l-.07-.078V-.555L81.4-.633a8.592,8.592,0,0,0,.914-.078A.34.34,0,0,0,82.584-1a17.539,17.539,0,0,0,.1-2.422V-7.555a17.539,17.539,0,0,0-.1-2.422.34.34,0,0,0-.266-.289,8.592,8.592,0,0,0-.914-.078l-.078-.078v-.531l.078-.07q.75.047,2.406.047t2.4-.047l.078.07v.531l-.078.078a8.592,8.592,0,0,0-.914.078.34.34,0,0,0-.266.289,17.539,17.539,0,0,0-.1,2.422v4.133A17.539,17.539,0,0,0,85.03-1a.34.34,0,0,0,.266.289,8.592,8.592,0,0,0,.914.078l.078.078Zm9.734-2.578A17.426,17.426,0,0,0,95.85-.031l-.078.078L90.092,0Q88.67,0,88.084.047l-.078-.078V-.25l.039-.094A2.725,2.725,0,0,0,88.67-.8a4.133,4.133,0,0,0,.086-1.039l.023-1.75V-7.555a17.539,17.539,0,0,0-.1-2.422.34.34,0,0,0-.266-.289,8.592,8.592,0,0,0-.914-.078l-.078-.078v-.531l.078-.07q.789.047,2.438.047,1.469,0,5.586-.047l.086.063-.1.867q-.047.414-.07.7l-.055.727-.078.086H94.85l-.078-.078a3.192,3.192,0,0,0-.125-1.211,1.784,1.784,0,0,0-.84-.172q-.754-.062-1.324-.062-.68,0-1.375.055-.086.82-.086,2.273v1.617q.617.039,1,.039l1.023-.008q.719-.008.813-.117A2.482,2.482,0,0,0,94.022-7.3l.078-.078h.484l.078.078q-.031.875-.031,1.6,0,.789.031,1.727l-.078.07h-.523l-.078-.078a2.486,2.486,0,0,0-.125-1.066q-.125-.168-.758-.223Q92.624-5.3,92.084-5.3q-.57,0-1.062.039v2.383q0,1.023.039,1.984h1.063a12.161,12.161,0,0,0,2.8-.18.255.255,0,0,0,.125-.086,1.385,1.385,0,0,0,.148-.469l.188-.969.078-.086h.477Zm9.531-1a3.7,3.7,0,0,1-.734,2.273,3.836,3.836,0,0,1-1.68,1.289,5.982,5.982,0,0,1-2.273.391,7.426,7.426,0,0,1-3.219-.75l-.094-.172a11.428,11.428,0,0,0,.219-2.555l.078-.078h.5l.07.078v.18A9.378,9.378,0,0,0,98.514-1.8a2.246,2.246,0,0,0,1.008.859,3.516,3.516,0,0,0,1.578.375,2.228,2.228,0,0,0,2.141-1.078,2.355,2.355,0,0,0,.3-1.148,1.484,1.484,0,0,0-.836-1.43,4.722,4.722,0,0,0-1.336-.352,6.978,6.978,0,0,1-2.742-.8,2.642,2.642,0,0,1-.992-2.273A3.24,3.24,0,0,1,98.717-10.2a4.651,4.651,0,0,1,3.172-1,6.4,6.4,0,0,1,2.953.586l.055.188A13.531,13.531,0,0,0,104.67-8.2l-.086.078h-.492l-.078-.078a9.474,9.474,0,0,0-.078-1.219,1.845,1.845,0,0,0-.844-.625,3.455,3.455,0,0,0-1.336-.266,2.367,2.367,0,0,0-1.656.555A1.751,1.751,0,0,0,99.53-8.4a1.462,1.462,0,0,0,.648,1.32,6.305,6.305,0,0,0,1.992.523q.164.023.914.156a4.52,4.52,0,0,1,.852.227,2.356,2.356,0,0,1,1.188.906A2.989,2.989,0,0,1,105.553-3.609Z" transform="translate(-1.239 18.905)" />
</svg>
